<svg width="59" height="40" viewBox="0 0 59 40" fill="none" xmlns="http://www.w3.org/2000/svg">
    <path d="M42.4164 27.0295C40.07 26.4626 37.7009 26.0771 35.3318 25.805L38.5438 34.0136C39.9561 37.5964 43.4187 39.9773 47.2913 39.9773H47.3596L42.4164 27.0295ZM32.7349 1.65533C32.5071 1.17914 32.1654 0.793651 31.687 0.47619C31.1631 0.15873 30.6164 0 30.0469 0C29.4546 0 28.9306 0.136054 28.4523 0.453515C27.9739 0.770975 27.6322 1.15646 27.4044 1.678L19.4542 22.7664C21.755 22.1769 24.1013 21.7914 26.4932 21.6327L30.0696 12.3356L33.76 21.7687C36.2202 22.0408 38.6349 22.5397 40.9812 23.2426L32.7349 1.65533ZM12.9619 39.9547C16.8573 39.9547 20.3426 37.5737 21.7322 33.9456L24.9214 25.6689C22.5978 25.8503 20.297 26.1678 17.9963 26.6213L12.9619 39.9547Z" fill="white"/>
    <path d="M59 33.9685C54.1023 32.1771 49.273 30.6805 44.3525 29.7054C39.4548 28.7304 34.4888 28.2088 29.5228 28.2088C24.5568 28.1861 19.5907 28.6397 14.693 29.592C9.74981 30.5218 4.92046 31.973 0 33.719C4.03205 30.4084 8.81583 27.9821 13.8502 26.3494C18.8846 24.7168 24.2378 23.9231 29.5456 23.9458C34.8761 23.9685 40.2066 24.8075 45.2181 26.4855C50.2525 28.1635 54.9907 30.6125 59 33.9685Z" fill="white"/>
</svg>
