<svg width="237" height="43" viewBox="0 0 237 43" fill="none" xmlns="http://www.w3.org/2000/svg">
    <g clip-path="url(#clip0_520:842)">
        <path d="M18.9876 18.3035L9.66642 43H0L14.9312 2.62729C15.2764 1.8391 15.7942 1.22607 16.571 0.700611C17.2615 0.262729 18.0382 0 18.9013 0C19.7644 0 20.5412 0.262729 21.3179 0.700611C22.0947 1.22607 22.6125 1.8391 22.9578 2.62729L38.0615 43H28.3951L18.9876 18.3035Z" fill="white"/>
        <path d="M63.0906 43.0009V9.45919H53.3379V0.263672H82.2509V9.54677H72.9297V43.0885H63.0906V43.0009Z" fill="white"/>
        <path d="M117.896 0.263672V33.8054H135.503V43.0009H116.17C110.819 43.0009 108.229 40.1109 108.229 34.3309V0.263672H117.896Z" fill="white"/>
        <path d="M169.68 18.3035L160.359 43H150.693L165.624 2.62729C165.969 1.8391 166.487 1.22607 167.264 0.700611C167.954 0.262729 168.817 0 169.68 0C170.544 0 171.32 0.262729 172.097 0.700611C172.874 1.22607 173.392 1.8391 173.737 2.62729L188.841 43H179.174L169.68 18.3035Z" fill="white"/>
        <path d="M206.533 33.7178H223.536C225.435 33.7178 226.384 32.7545 226.384 30.8278C226.384 28.9011 225.78 27.7627 224.485 27.4123L213.783 25.2229C212.057 24.7851 210.676 24.172 209.554 23.3838C207.828 22.2453 206.533 20.7565 205.584 18.9174C204.635 17.0783 204.117 15.0641 204.117 12.9622C204.117 10.948 204.548 9.02131 205.411 7.26978C206.274 5.51825 207.569 3.94188 209.209 2.71581C210.59 1.66489 212.489 0.964283 214.905 0.613977C215.682 0.438825 216.545 0.351248 217.322 0.263672H233.893V9.54677H217.667C215.682 9.54677 214.733 10.5101 214.733 12.3492C214.733 14.1883 215.337 15.4144 216.631 15.8523L230.354 19.0926C234.583 20.7565 236.741 23.9969 236.914 28.9887C237.172 31.3533 236.914 33.6303 236.05 35.7321C235.187 37.8339 233.893 39.4979 232.167 40.8115C230.699 41.8624 228.973 42.5631 227.074 42.9134C226.298 43.0885 225.521 43.1761 224.572 43.1761H206.62V33.7178H206.533Z" fill="white"/>
    </g>
    <defs>
        <clipPath id="clip0_520:842">
            <rect width="237" height="43" fill="white"/>
        </clipPath>
    </defs>
</svg>
